<svg xmlns="http://www.w3.org/2000/svg" width="375" height="812" viewBox="0 0 375 812">
  <g id="Gruppe_32" data-name="Gruppe 32" transform="translate(0 -812)">
    <rect id="Rechteck_8" data-name="Rechteck 8" width="375" height="812" transform="translate(0 812)" fill="#191919"/>
    <g id="Gruppe_4" data-name="Gruppe 4" transform="translate(1680.542 750) rotate(90)">
      <line id="Linie_4" data-name="Linie 4" y1="0.269" x2="108.051" transform="translate(274.449 1617.042)" fill="none" stroke="#fff" stroke-linecap="round" stroke-width="3"/>
      <g id="volleyball" transform="translate(243 1606.914)">
        <path id="Pfad_7" data-name="Pfad 7" d="M8.2-510.747a10.158,10.158,0,0,0-5.586,2.982,10.071,10.071,0,0,0-2.789,6.3l-.028.34.435.205a10.812,10.812,0,0,0,1.671.616,9.665,9.665,0,0,0,1.331.261h.095l-.028-.525a12.057,12.057,0,0,1,.142-2.24,11.269,11.269,0,0,1,3.176-6.182,11.9,11.9,0,0,1,2.3-1.786c.063-.039.051-.047-.1-.043A5.62,5.62,0,0,0,8.2-510.747Z" transform="translate(0.2 510.823)" fill="#fff"/>
        <path id="Pfad_8" data-name="Pfad 8" d="M124.923-507.8a10.408,10.408,0,0,0-2.9,1.647,12.733,12.733,0,0,0-1.529,1.533,10.319,10.319,0,0,0-1.983,4.128,10.734,10.734,0,0,0-.233,2.8l.032.415.316.012a9.6,9.6,0,0,0,1.766-.194,10.858,10.858,0,0,0,2.445-.845l.265-.134.028-.269a12.279,12.279,0,0,1,.45-2.587,11.467,11.467,0,0,1,3.753-5.6c.541-.427.506-.391.438-.438a11.068,11.068,0,0,0-2.2-.672A4.687,4.687,0,0,0,124.923-507.8Z" transform="translate(-113.578 508.112)" fill="#fff"/>
        <path id="Pfad_9" data-name="Pfad 9" d="M325.446-473.779a10.832,10.832,0,0,0-2.177,2.026l-.17.217.423.221a11.317,11.317,0,0,1,5.736,7.272,13.836,13.836,0,0,1,.367,2.722c.008.174.012.166.213-.34a10.2,10.2,0,0,0,.387-6.324,9.006,9.006,0,0,0-.711-1.888,10.232,10.232,0,0,0-2.761-3.441,9.564,9.564,0,0,0-.968-.687C325.774-474,325.62-473.9,325.446-473.779Z" transform="translate(-310.329 475.455)" fill="#fff"/>
        <path id="Pfad_10" data-name="Pfad 10" d="M272.139-385.909a11.319,11.319,0,0,0-.608,1.272,10.509,10.509,0,0,0-.66,2.686c-.016.15-.036.375-.047.5l-.024.225.411.277a11.343,11.343,0,0,1,4.855,7.888c.028.194.051.363.059.371a7.8,7.8,0,0,0,1.225-1.039,1.569,1.569,0,0,0,.687-1.3,10.118,10.118,0,0,0-.845-6.1,10.22,10.22,0,0,0-3.844-4.27,10.706,10.706,0,0,0-1.134-.608A.355.355,0,0,0,272.139-385.909Z" transform="translate(-260.095 390.931)" fill="#fff"/>
        <path id="Pfad_11" data-name="Pfad 11" d="M10.749-238.734a11.392,11.392,0,0,1-3.721,1.074,15.543,15.543,0,0,1-2.915-.043,11.236,11.236,0,0,1-2.56-.715c-.229-.095-.423-.174-.431-.174a10.772,10.772,0,0,0,.367,1.9c.115.375.154.427.687.873a10.924,10.924,0,0,0,3.061,1.762,12.319,12.319,0,0,0,2.015.506,13.606,13.606,0,0,0,2.864,0,10.681,10.681,0,0,0,3.456-1.157,5.618,5.618,0,0,0,1.007-.652,7.1,7.1,0,0,0-.668-1.039,10.318,10.318,0,0,0-2.481-2.346,1.08,1.08,0,0,0-.3-.162A2.289,2.289,0,0,0,10.749-238.734Z" transform="translate(-1.063 249.645)" fill="#fff"/>
        <path id="Pfad_12" data-name="Pfad 12" d="M57.056-120.645a11.672,11.672,0,0,1-4.6,1.639,18.462,18.462,0,0,1-2.765,0,11.439,11.439,0,0,1-3.828-1.2c-.336-.17-.616-.312-.624-.312a10.149,10.149,0,0,0,1.035,1.256,9.486,9.486,0,0,0,1.718,1.438,10.147,10.147,0,0,0,9.911.7l.411-.194-.024-.407a10.413,10.413,0,0,0-.6-2.785,1.4,1.4,0,0,0-.19-.4A4.193,4.193,0,0,0,57.056-120.645Z" transform="translate(-43.44 136.304)" fill="#fff"/>
      </g>
      <path id="Pfad_13" data-name="Pfad 13" d="M0,0H113.226" transform="translate(431.173 1616.992)" fill="none" stroke="#fff" stroke-linecap="round" stroke-width="3"/>
      <g id="volleyball-2" data-name="volleyball" transform="translate(396.745 1606.914)">
        <path id="Pfad_7-2" data-name="Pfad 7" d="M8.2-510.747a10.158,10.158,0,0,0-5.586,2.982,10.071,10.071,0,0,0-2.789,6.3l-.028.34.435.205a10.812,10.812,0,0,0,1.671.616,9.665,9.665,0,0,0,1.331.261h.095l-.028-.525a12.057,12.057,0,0,1,.142-2.24,11.269,11.269,0,0,1,3.176-6.182,11.9,11.9,0,0,1,2.3-1.786c.063-.039.051-.047-.1-.043A5.62,5.62,0,0,0,8.2-510.747Z" transform="translate(0.2 510.823)" fill="#fff"/>
        <path id="Pfad_8-2" data-name="Pfad 8" d="M124.923-507.8a10.408,10.408,0,0,0-2.9,1.647,12.733,12.733,0,0,0-1.529,1.533,10.319,10.319,0,0,0-1.983,4.128,10.734,10.734,0,0,0-.233,2.8l.032.415.316.012a9.6,9.6,0,0,0,1.766-.194,10.858,10.858,0,0,0,2.445-.845l.265-.134.028-.269a12.279,12.279,0,0,1,.45-2.587,11.467,11.467,0,0,1,3.753-5.6c.541-.427.506-.391.438-.438a11.068,11.068,0,0,0-2.2-.672A4.687,4.687,0,0,0,124.923-507.8Z" transform="translate(-113.578 508.112)" fill="#fff"/>
        <path id="Pfad_9-2" data-name="Pfad 9" d="M325.446-473.779a10.832,10.832,0,0,0-2.177,2.026l-.17.217.423.221a11.317,11.317,0,0,1,5.736,7.272,13.836,13.836,0,0,1,.367,2.722c.008.174.012.166.213-.34a10.2,10.2,0,0,0,.387-6.324,9.006,9.006,0,0,0-.711-1.888,10.232,10.232,0,0,0-2.761-3.441,9.564,9.564,0,0,0-.968-.687C325.774-474,325.62-473.9,325.446-473.779Z" transform="translate(-310.329 475.455)" fill="#fff"/>
        <path id="Pfad_10-2" data-name="Pfad 10" d="M272.139-385.909a11.319,11.319,0,0,0-.608,1.272,10.509,10.509,0,0,0-.66,2.686c-.016.15-.036.375-.047.5l-.024.225.411.277a11.343,11.343,0,0,1,4.855,7.888c.028.194.051.363.059.371a7.8,7.8,0,0,0,1.225-1.039,1.569,1.569,0,0,0,.687-1.3,10.118,10.118,0,0,0-.845-6.1,10.22,10.22,0,0,0-3.844-4.27,10.706,10.706,0,0,0-1.134-.608A.355.355,0,0,0,272.139-385.909Z" transform="translate(-260.095 390.931)" fill="#fff"/>
        <path id="Pfad_11-2" data-name="Pfad 11" d="M10.749-238.734a11.392,11.392,0,0,1-3.721,1.074,15.543,15.543,0,0,1-2.915-.043,11.236,11.236,0,0,1-2.56-.715c-.229-.095-.423-.174-.431-.174a10.772,10.772,0,0,0,.367,1.9c.115.375.154.427.687.873a10.924,10.924,0,0,0,3.061,1.762,12.319,12.319,0,0,0,2.015.506,13.606,13.606,0,0,0,2.864,0,10.681,10.681,0,0,0,3.456-1.157,5.618,5.618,0,0,0,1.007-.652,7.1,7.1,0,0,0-.668-1.039,10.318,10.318,0,0,0-2.481-2.346,1.08,1.08,0,0,0-.3-.162A2.289,2.289,0,0,0,10.749-238.734Z" transform="translate(-1.063 249.645)" fill="#fff"/>
        <path id="Pfad_12-2" data-name="Pfad 12" d="M57.056-120.645a11.672,11.672,0,0,1-4.6,1.639,18.462,18.462,0,0,1-2.765,0,11.439,11.439,0,0,1-3.828-1.2c-.336-.17-.616-.312-.624-.312a10.149,10.149,0,0,0,1.035,1.256,9.486,9.486,0,0,0,1.718,1.438,10.147,10.147,0,0,0,9.911.7l.411-.194-.024-.407a10.413,10.413,0,0,0-.6-2.785,1.4,1.4,0,0,0-.19-.4A4.193,4.193,0,0,0,57.056-120.645Z" transform="translate(-43.44 136.304)" fill="#fff"/>
      </g>
      <line id="Linie_7" data-name="Linie 7" x2="113.329" y2="0.269" transform="translate(596.5 1617.042)" fill="none" stroke="#fff" stroke-linecap="round" stroke-width="3"/>
      <g id="volleyball-3" data-name="volleyball" transform="translate(559.527 1606.914)">
        <path id="Pfad_7-3" data-name="Pfad 7" d="M8.2-510.747a10.158,10.158,0,0,0-5.586,2.982,10.071,10.071,0,0,0-2.789,6.3l-.028.34.435.205a10.812,10.812,0,0,0,1.671.616,9.665,9.665,0,0,0,1.331.261h.095l-.028-.525a12.057,12.057,0,0,1,.142-2.24,11.269,11.269,0,0,1,3.176-6.182,11.9,11.9,0,0,1,2.3-1.786c.063-.039.051-.047-.1-.043A5.62,5.62,0,0,0,8.2-510.747Z" transform="translate(0.2 510.823)" fill="#fff"/>
        <path id="Pfad_8-3" data-name="Pfad 8" d="M124.923-507.8a10.408,10.408,0,0,0-2.9,1.647,12.733,12.733,0,0,0-1.529,1.533,10.319,10.319,0,0,0-1.983,4.128,10.734,10.734,0,0,0-.233,2.8l.032.415.316.012a9.6,9.6,0,0,0,1.766-.194,10.858,10.858,0,0,0,2.445-.845l.265-.134.028-.269a12.279,12.279,0,0,1,.45-2.587,11.467,11.467,0,0,1,3.753-5.6c.541-.427.506-.391.438-.438a11.068,11.068,0,0,0-2.2-.672A4.687,4.687,0,0,0,124.923-507.8Z" transform="translate(-113.578 508.112)" fill="#fff"/>
        <path id="Pfad_9-3" data-name="Pfad 9" d="M325.446-473.779a10.832,10.832,0,0,0-2.177,2.026l-.17.217.423.221a11.317,11.317,0,0,1,5.736,7.272,13.836,13.836,0,0,1,.367,2.722c.008.174.012.166.213-.34a10.2,10.2,0,0,0,.387-6.324,9.006,9.006,0,0,0-.711-1.888,10.232,10.232,0,0,0-2.761-3.441,9.564,9.564,0,0,0-.968-.687C325.774-474,325.62-473.9,325.446-473.779Z" transform="translate(-310.329 475.455)" fill="#fff"/>
        <path id="Pfad_10-3" data-name="Pfad 10" d="M272.139-385.909a11.319,11.319,0,0,0-.608,1.272,10.509,10.509,0,0,0-.66,2.686c-.016.15-.036.375-.047.5l-.024.225.411.277a11.343,11.343,0,0,1,4.855,7.888c.028.194.051.363.059.371a7.8,7.8,0,0,0,1.225-1.039,1.569,1.569,0,0,0,.687-1.3,10.118,10.118,0,0,0-.845-6.1,10.22,10.22,0,0,0-3.844-4.27,10.706,10.706,0,0,0-1.134-.608A.355.355,0,0,0,272.139-385.909Z" transform="translate(-260.095 390.931)" fill="#fff"/>
        <path id="Pfad_11-3" data-name="Pfad 11" d="M10.749-238.734a11.392,11.392,0,0,1-3.721,1.074,15.543,15.543,0,0,1-2.915-.043,11.236,11.236,0,0,1-2.56-.715c-.229-.095-.423-.174-.431-.174a10.772,10.772,0,0,0,.367,1.9c.115.375.154.427.687.873a10.924,10.924,0,0,0,3.061,1.762,12.319,12.319,0,0,0,2.015.506,13.606,13.606,0,0,0,2.864,0,10.681,10.681,0,0,0,3.456-1.157,5.618,5.618,0,0,0,1.007-.652,7.1,7.1,0,0,0-.668-1.039,10.318,10.318,0,0,0-2.481-2.346,1.08,1.08,0,0,0-.3-.162A2.289,2.289,0,0,0,10.749-238.734Z" transform="translate(-1.063 249.645)" fill="#fff"/>
        <path id="Pfad_12-3" data-name="Pfad 12" d="M57.056-120.645a11.672,11.672,0,0,1-4.6,1.639,18.462,18.462,0,0,1-2.765,0,11.439,11.439,0,0,1-3.828-1.2c-.336-.17-.616-.312-.624-.312a10.149,10.149,0,0,0,1.035,1.256,9.486,9.486,0,0,0,1.718,1.438,10.147,10.147,0,0,0,9.911.7l.411-.194-.024-.407a10.413,10.413,0,0,0-.6-2.785,1.4,1.4,0,0,0-.19-.4A4.193,4.193,0,0,0,57.056-120.645Z" transform="translate(-43.44 136.304)" fill="#fff"/>
      </g>
      <g id="volleyball-4" data-name="volleyball" transform="translate(722.309 1606.914)">
        <path id="Pfad_7-4" data-name="Pfad 7" d="M8.2-510.747a10.158,10.158,0,0,0-5.586,2.982,10.071,10.071,0,0,0-2.789,6.3l-.028.34.435.205a10.812,10.812,0,0,0,1.671.616,9.665,9.665,0,0,0,1.331.261h.095l-.028-.525a12.057,12.057,0,0,1,.142-2.24,11.269,11.269,0,0,1,3.176-6.182,11.9,11.9,0,0,1,2.3-1.786c.063-.039.051-.047-.1-.043A5.62,5.62,0,0,0,8.2-510.747Z" transform="translate(0.2 510.823)" fill="#fff"/>
        <path id="Pfad_8-4" data-name="Pfad 8" d="M124.923-507.8a10.408,10.408,0,0,0-2.9,1.647,12.733,12.733,0,0,0-1.529,1.533,10.319,10.319,0,0,0-1.983,4.128,10.734,10.734,0,0,0-.233,2.8l.032.415.316.012a9.6,9.6,0,0,0,1.766-.194,10.858,10.858,0,0,0,2.445-.845l.265-.134.028-.269a12.279,12.279,0,0,1,.45-2.587,11.467,11.467,0,0,1,3.753-5.6c.541-.427.506-.391.438-.438a11.068,11.068,0,0,0-2.2-.672A4.687,4.687,0,0,0,124.923-507.8Z" transform="translate(-113.578 508.112)" fill="#fff"/>
        <path id="Pfad_9-4" data-name="Pfad 9" d="M325.446-473.779a10.832,10.832,0,0,0-2.177,2.026l-.17.217.423.221a11.317,11.317,0,0,1,5.736,7.272,13.836,13.836,0,0,1,.367,2.722c.008.174.012.166.213-.34a10.2,10.2,0,0,0,.387-6.324,9.006,9.006,0,0,0-.711-1.888,10.232,10.232,0,0,0-2.761-3.441,9.564,9.564,0,0,0-.968-.687C325.774-474,325.62-473.9,325.446-473.779Z" transform="translate(-310.329 475.455)" fill="#fff"/>
        <path id="Pfad_10-4" data-name="Pfad 10" d="M272.139-385.909a11.319,11.319,0,0,0-.608,1.272,10.509,10.509,0,0,0-.66,2.686c-.016.15-.036.375-.047.5l-.024.225.411.277a11.343,11.343,0,0,1,4.855,7.888c.028.194.051.363.059.371a7.8,7.8,0,0,0,1.225-1.039,1.569,1.569,0,0,0,.687-1.3,10.118,10.118,0,0,0-.845-6.1,10.22,10.22,0,0,0-3.844-4.27,10.706,10.706,0,0,0-1.134-.608A.355.355,0,0,0,272.139-385.909Z" transform="translate(-260.095 390.931)" fill="#fff"/>
        <path id="Pfad_11-4" data-name="Pfad 11" d="M10.749-238.734a11.392,11.392,0,0,1-3.721,1.074,15.543,15.543,0,0,1-2.915-.043,11.236,11.236,0,0,1-2.56-.715c-.229-.095-.423-.174-.431-.174a10.772,10.772,0,0,0,.367,1.9c.115.375.154.427.687.873a10.924,10.924,0,0,0,3.061,1.762,12.319,12.319,0,0,0,2.015.506,13.606,13.606,0,0,0,2.864,0,10.681,10.681,0,0,0,3.456-1.157,5.618,5.618,0,0,0,1.007-.652,7.1,7.1,0,0,0-.668-1.039,10.318,10.318,0,0,0-2.481-2.346,1.08,1.08,0,0,0-.3-.162A2.289,2.289,0,0,0,10.749-238.734Z" transform="translate(-1.063 249.645)" fill="#fff"/>
        <path id="Pfad_12-4" data-name="Pfad 12" d="M57.056-120.645a11.672,11.672,0,0,1-4.6,1.639,18.462,18.462,0,0,1-2.765,0,11.439,11.439,0,0,1-3.828-1.2c-.336-.17-.616-.312-.624-.312a10.149,10.149,0,0,0,1.035,1.256,9.486,9.486,0,0,0,1.718,1.438,10.147,10.147,0,0,0,9.911.7l.411-.194-.024-.407a10.413,10.413,0,0,0-.6-2.785,1.4,1.4,0,0,0-.19-.4A4.193,4.193,0,0,0,57.056-120.645Z" transform="translate(-43.44 136.304)" fill="#fff"/>
      </g>
    </g>
    <g id="Gruppe_31" data-name="Gruppe 31">
      <g id="Gruppe_5" data-name="Gruppe 5" transform="translate(-209 -397.418)">
        <text id="Phase_1_-_Warm_Up" data-name="Phase 1 - Warm Up" transform="translate(312 1406.418)" fill="#fff" font-size="17" font-family="Cunia"><tspan x="0" y="0">Phase 1 - Warm Up</tspan></text>
        <text id="Launch_Website_Build_Telegram_Community_Make_Whitelist_Giveaways_Solidproof_KYC_Unicrypt_ILO_" data-name="Launch WebsiteBuild Telegram Community
Make Whitelist Giveaways
Solidproof KYC
Unicrypt ILO
" transform="translate(312 1433.418)" fill="#fff" font-size="11" font-family="Montserrat-Regular, Montserrat"><tspan x="0" y="0">Launch Website</tspan><tspan x="0" y="15">Build Telegram Community</tspan><tspan x="0" y="30">Make Whitelist Giveaways</tspan><tspan x="0" y="45">Solidproof KYC</tspan><tspan x="0" y="60">Unicrypt ILO</tspan><tspan x="0" y="75"></tspan></text>
      </g>
      <g id="Gruppe_6" data-name="Gruppe 6" transform="translate(-209 -242)">
        <text id="Phase_2_-_Match_Day_" data-name="Phase 2 - Match Day " transform="translate(312 1406)" fill="#fff" font-size="17" font-family="Cunia"><tspan x="0" y="0">Phase 2 - Match Day </tspan></text>
        <text id="PCS_Token_Launch_DEXTOOLS_trending_1_000_000_MC_500_Holders_" data-name="PCS Token Launch
DEXTOOLS trending
1 000 000 MC
500 Holders
" transform="translate(312 1432)" fill="#fff" font-size="11" font-family="Montserrat-Regular, Montserrat"><tspan x="0" y="0">PCS Token Launch</tspan><tspan x="0" y="16">DEXTOOLS trending</tspan><tspan x="0" y="32">1 000 000 MC</tspan><tspan x="0" y="48">500 Holders</tspan><tspan x="0" y="64"></tspan></text>
      </g>
      <g id="Gruppe_7" data-name="Gruppe 7" transform="translate(-211 -84)">
        <text id="Phase_3_-_Championship" data-name="Phase 3 - Championship" transform="translate(312 1406)" fill="#fff" font-size="17" font-family="Cunia"><tspan x="0" y="0">Phase 3 - Championship</tspan></text>
        <text id="_10_000_000_Market_Cap_Initiation_of_bigger_marketing_Calls_from_the_best_TG_Channels_2000_Holders_" data-name="10 000 000 Market Cap
Initiation of bigger marketing
Calls from the best TG Channels
2000+ Holders
" transform="translate(312 1435)" fill="#fff" font-size="11" font-family="Montserrat-Regular, Montserrat"><tspan x="0" y="0">10 000 000 Market Cap</tspan><tspan x="0" y="15">Initiation of bigger marketing</tspan><tspan x="0" y="30">Calls from the best TG Channels</tspan><tspan x="0" y="45">2000+ Holders</tspan><tspan x="0" y="60"></tspan></text>
      </g>
      <g id="Gruppe_29" data-name="Gruppe 29" transform="translate(-211 82)">
        <text id="Phase_4" data-name="Phase 4" transform="translate(312 1407)" fill="#fff" font-size="17" font-family="Cunia"><tspan x="0" y="0">Phase 4</tspan></text>
        <text id="Coming_soon" data-name="Coming soon" transform="translate(312 1438)" fill="#fff" font-size="11" font-family="Montserrat-Regular, Montserrat"><tspan x="0" y="0">Coming soon</tspan></text>
      </g>
    </g>
    <text id="Roadmap" transform="translate(99 910)" fill="#fa6618" font-size="35" font-family="Cunia"><tspan x="0" y="0">Roadmap</tspan></text>
  </g>
</svg>
