<?xml version="1.0" standalone="no"?>
<!DOCTYPE svg PUBLIC "-//W3C//DTD SVG 20010904//EN"
 "http://www.w3.org/TR/2001/REC-SVG-20010904/DTD/svg10.dtd">
<svg version="1.0" xmlns="http://www.w3.org/2000/svg"
 width="512.000000pt" height="512.000000pt" viewBox="0 0 512.000000 512.000000"
 preserveAspectRatio="xMidYMid meet">

<g transform="translate(0.000000,512.000000) scale(0.100000,-0.100000)"
fill="#000000" stroke="none">
<path d="M2125 5089 c-536 -93 -1032 -357 -1414 -755 -415 -432 -658 -979
-706 -1594 l-7 -86 110 -52 c126 -60 285 -118 423 -156 101 -28 297 -66 337
-66 l24 0 -7 133 c-8 154 7 387 36 567 98 596 375 1136 804 1565 169 170 331
295 581 452 16 10 13 12 -26 11 -25 0 -94 -9 -155 -19z"/>
<path d="M2870 5030 c-261 -96 -519 -242 -735 -417 -111 -89 -301 -280 -387
-388 -244 -307 -418 -670 -502 -1045 -50 -226 -74 -512 -59 -710 l8 -105 80
-3 c95 -3 304 19 447 49 198 41 442 125 619 214 l67 34 7 68 c26 287 54 448
114 655 161 546 513 1073 950 1417 137 108 128 99 111 111 -60 39 -490 171
-558 170 -15 -1 -88 -23 -162 -50z"/>
<path d="M3825 4684 c-202 -141 -414 -338 -551 -513 l-43 -55 107 -56 c729
-384 1250 -1045 1452 -1841 49 -194 78 -405 93 -689 2 -44 3 -42 54 86 202
504 236 1075 98 1601 -47 179 -91 296 -180 478 -161 330 -410 641 -699 871
-90 71 -235 174 -245 174 -3 -1 -42 -26 -86 -56z"/>
<path d="M3047 3837 c-30 -46 -111 -215 -154 -322 -81 -201 -150 -481 -167
-680 -4 -38 -9 -95 -12 -126 l-6 -57 104 -70 c676 -462 1120 -1183 1229 -1997
7 -49 13 -92 15 -94 8 -10 194 148 310 263 147 146 140 133 174 328 90 528 17
1055 -214 1543 -208 439 -560 830 -973 1081 -93 57 -274 154 -287 154 -2 0
-10 -10 -19 -23z"/>
<path d="M2450 2346 c-265 -135 -603 -232 -942 -272 -179 -20 -575 -15 -738
11 -228 36 -446 97 -648 181 -58 24 -107 44 -109 44 -14 0 55 -361 93 -481 29
-95 39 -108 174 -221 209 -176 514 -352 775 -446 138 -50 354 -104 510 -128
167 -26 561 -26 725 -1 308 48 631 155 875 293 135 76 255 154 255 165 0 16
-98 168 -169 263 -173 230 -384 429 -628 594 -34 23 -68 42 -75 41 -7 0 -51
-19 -98 -43z"/>
<path d="M3445 1144 c-321 -207 -740 -356 -1165 -415 -128 -18 -574 -18 -700
-1 -363 51 -658 143 -969 303 -85 43 -156 79 -158 79 -13 0 170 -223 262 -318
141 -147 266 -252 435 -364 740 -492 1695 -559 2509 -177 l104 49 -6 103 c-12
210 -71 484 -153 705 -21 56 -43 102 -48 101 -6 -1 -56 -30 -111 -65z"/>
</g>
</svg>
